<svg width="456" height="456" viewBox="0 0 456 456" fill="none" xmlns="http://www.w3.org/2000/svg">
<path d="M228 317.25C221.058 317.25 215.191 314.854 210.398 310.06C205.605 305.267 203.208 299.4 203.208 292.458C203.208 285.517 205.605 279.649 210.398 274.856C215.191 270.063 221.058 267.667 228 267.667C234.942 267.667 240.809 270.063 245.602 274.856C250.395 279.649 252.792 285.517 252.792 292.458C252.792 299.4 250.395 305.267 245.602 310.06C240.809 314.854 234.942 317.25 228 317.25ZM228 208.167C240.396 208.167 252.174 210.15 263.333 214.117C274.493 218.083 284.614 223.538 293.698 230.479C297.003 232.958 298.699 236.224 298.785 240.277C298.871 244.33 297.423 247.84 294.442 250.808C291.632 253.618 288.161 255.066 284.029 255.152C279.897 255.238 276.178 254.121 272.873 251.8C266.592 247.503 259.651 244.115 252.048 241.636C244.445 239.156 236.429 237.917 228 237.917C219.571 237.917 211.555 239.156 203.952 241.636C196.349 244.115 189.408 247.503 183.127 251.8C179.822 254.114 176.103 255.188 171.971 255.023C167.839 254.858 164.368 253.37 161.558 250.56C158.749 247.585 157.344 244.075 157.344 240.029C157.344 235.983 158.997 232.717 162.302 230.231C171.392 223.29 181.517 217.875 192.677 213.988C203.836 210.1 215.611 208.16 228 208.167ZM228 148.667C248.66 148.667 268.123 152.055 286.389 158.831C304.656 165.608 321.058 175.194 335.596 187.59C338.901 190.399 340.637 193.87 340.802 198.002C340.967 202.134 339.563 205.688 336.588 208.663C333.778 211.472 330.307 212.92 326.175 213.006C322.043 213.092 318.324 211.809 315.019 209.158C303.119 199.407 289.774 191.847 274.985 186.479C260.196 181.111 244.534 178.423 228 178.417C211.466 178.41 195.807 181.098 181.025 186.479C166.242 191.86 152.894 199.42 140.981 209.158C137.676 211.803 133.957 213.085 129.825 213.006C125.693 212.927 122.222 211.479 119.413 208.663C116.438 205.688 115.033 202.134 115.198 198.002C115.363 193.87 117.099 190.399 120.404 187.59C134.949 175.194 151.354 165.608 169.621 158.831C187.887 152.055 207.347 148.667 228 148.667Z" fill="white"/>
</svg>
